<svg xmlns="http://www.w3.org/2000/svg" viewBox="0 0 267 43"><defs><linearGradient id="a" x1="14.741%" x2="83.028%" y1="64.224%" y2="36.676%"><stop offset="0%" stop-color="#FFF"/><stop offset="100%" stop-color="#ABABA5"/></linearGradient></defs><g fill="none" fill-rule="nonzero"><path fill="#21253C" d="M42.616.396h15.938c2.102-.04 4.205.216 6.249.746a11.93 11.93 0 0 1 4.382 2.182 8.844 8.844 0 0 1 2.594 3.458c.59 1.474.884 3.027.845 4.618 0 1.12-.137 2.24-.413 3.322a9.69 9.69 0 0 1-3.497 5.246 11.677 11.677 0 0 1-3.105 1.71L72.428 31.7h-7.782l-5.896-8.902h-.177l-9.629-.02V31.7h-6.328V.396Zm16.075 16.9c1.061.02 2.123-.118 3.164-.413a6.546 6.546 0 0 0 2.26-1.179 4.857 4.857 0 0 0 1.356-1.847 6.1 6.1 0 0 0 .452-2.437c0-1.749-.61-3.105-1.808-4.068-1.199-.963-3.007-1.454-5.424-1.454h-9.747v11.398h9.747ZM80.15.396h26.668v5.561h-20.32v6.25h18v5.226h-18v8.706h20.732v5.542H80.15zM114.285.396h16.508c2.102-.04 4.225.235 6.249.786a11.99 11.99 0 0 1 4.402 2.24 8.914 8.914 0 0 1 2.594 3.596c.59 1.533.884 3.164.845 4.795a12.507 12.507 0 0 1-.845 4.638 9.623 9.623 0 0 1-2.555 3.675 12.147 12.147 0 0 1-4.382 2.417 19.772 19.772 0 0 1-6.25.864l-10.199-.02V31.7h-6.367V.396Zm16.684 17.51a10.17 10.17 0 0 0 3.164-.433 6.64 6.64 0 0 0 2.26-1.219c.61-.53 1.081-1.179 1.376-1.926.314-.805.471-1.65.452-2.515 0-1.847-.61-3.301-1.808-4.343-1.199-1.041-3.007-1.552-5.424-1.552h-10.317v11.987h10.297ZM151.82.396h6.367v25.743h18.217v5.581h-24.565zM181.749.396h6.387V31.7h-6.387zM194.326 15.861a15.58 15.58 0 0 1 1.257-6.249 14.489 14.489 0 0 1 3.656-5.03 17.246 17.246 0 0 1 5.856-3.361 23.505 23.505 0 0 1 7.821-1.218c2.358-.02 4.716.255 7.035.786a22.16 22.16 0 0 1 5.935 2.358l-2.928 4.795a10.042 10.042 0 0 0-1.887-.963 16.056 16.056 0 0 0-2.28-.708 21.75 21.75 0 0 0-2.515-.452 22.285 22.285 0 0 0-2.554-.157 18.637 18.637 0 0 0-5.424.747 11.541 11.541 0 0 0-4.009 2.103 9.142 9.142 0 0 0-2.496 3.222 9.95 9.95 0 0 0-.845 4.127 9.943 9.943 0 0 0 .885 4.265 9.506 9.506 0 0 0 2.554 3.36 11.95 11.95 0 0 0 4.088 2.201 17.76 17.76 0 0 0 5.463.786c.924 0 1.847-.059 2.751-.196a24.094 24.094 0 0 0 2.633-.55 22.67 22.67 0 0 0 2.457-.846 19.012 19.012 0 0 0 2.2-1.08l2.929 4.814a20.996 20.996 0 0 1-5.935 2.574 27.5 27.5 0 0 1-7.153.944 25.817 25.817 0 0 1-8.47-1.258 17.65 17.65 0 0 1-6.092-3.439 14.218 14.218 0 0 1-3.675-5.168 16.333 16.333 0 0 1-1.257-6.407ZM244.575.396h6.74l15.151 31.324h-6.681l-2.516-5.267h-18.295l-2.417 5.267h-6.701L244.575.396Zm10.199 20.83-6.78-14.247-6.603 14.228 13.383.02Z"/><path fill="#4428E8" d="M10.31 10.654a6.953 6.953 0 0 1 2.397-.747c.216-.02.432-.04.668-.04h7.566c1.985-2.004 3.989-4.008 5.974-6.013l2.2-2.22a1.57 1.57 0 0 0 .355-.531.57.57 0 0 0-.236-.747 1.465 1.465 0 0 0-.55-.216 4.296 4.296 0 0 0-.708-.059H13.375c-.216 0-.452.02-.668.04a6.824 6.824 0 0 0-2.398.746 4.34 4.34 0 0 0-1.198.865c-.747.747-1.494 1.474-2.221 2.22L.484 10.3c-.079.079-.158.177-.236.275a1.071 1.071 0 0 0-.236.472c-.04.177.02.373.157.51.098.099.236.177.374.236.196.08.393.118.59.118.274.02.53.02.805.02l6.701.059.472-.472a4.067 4.067 0 0 1 1.198-.864Z"/><path fill="url(#a)" d="M29.096 11.42a1.57 1.57 0 0 0 .354-.53.57.57 0 0 0-.236-.747 1.465 1.465 0 0 0-.55-.216 4.296 4.296 0 0 0-.708-.06h-7.035l-.57.57c-.334.335-.727.61-1.14.806a7.116 7.116 0 0 1-2.26.747c-.294.04-.589.079-.884.059l-6.033-.059H8.64L6.87 13.759.484 20.086c-.079.079-.158.177-.236.275a1.071 1.071 0 0 0-.236.472c-.04.177.02.374.157.511.098.098.236.177.374.236.196.078.393.118.59.118.274.02.55.02.805.02l6.76.058.393-.393a4.651 4.651 0 0 1 1.199-.864 6.953 6.953 0 0 1 2.397-.747c.216-.02.432-.04.668-.04h7.488c2.024-2.043 4.028-4.067 6.052-6.091l2.201-2.22Z"/><path fill="#06C4FF" d="M19.211 21.05a7.643 7.643 0 0 1-2.26.746c-.294.04-.589.079-.884.059l-6.033-.04-1.238-.019h-.078c-.61.61-1.238 1.218-1.848 1.828L.484 29.97a1.585 1.585 0 0 0-.236.275 1.071 1.071 0 0 0-.236.472c-.04.177.02.373.157.51.098.099.236.178.374.237.196.078.393.117.59.117.274.02.55.02.805.02l6.858.06 1.238.019 6.033.04c.295 0 .59-.02.885-.06a7.116 7.116 0 0 0 2.26-.747 5.194 5.194 0 0 0 1.14-.805l6.543-6.584 2.201-2.22a1.57 1.57 0 0 0 .354-.53c.137-.276.02-.61-.236-.767a1.465 1.465 0 0 0-.55-.216 4.296 4.296 0 0 0-.708-.06h-7.094l-.491.492c-.354.334-.727.61-1.16.825Z"/><path fill="#0D223B" d="M261.18.494h-1.002V.003h2.574v.49h-1.002v2.26h-.55l-.02-2.26Zm2.162-.491h.57l.982 1.002 1.002-1.002h.55v2.75h-.55V.79l-1.002.943-.982-.963v1.985h-.55l-.02-2.751Z"/><g fill="#21253C"><path d="M116.427 40.917c-.353 0-.687-.059-.963-.177-.275-.118-.51-.275-.668-.491-.157-.216-.236-.491-.236-.806 0-.373.099-.668.315-.904s.491-.393.825-.51a3.648 3.648 0 0 1 1.022-.217c.511-.04.845-.079 1.022-.118.177-.04.255-.098.255-.177 0-.118-.078-.216-.216-.295-.137-.078-.334-.117-.55-.117-.255 0-.432.039-.57.137-.137.098-.177.236-.177.413h-1.867c0-.413.118-.767.354-1.061.236-.295.55-.511.943-.649a4.054 4.054 0 0 1 1.337-.216c.471 0 .904.079 1.297.216.412.138.727.354.982.629.256.275.374.648.374 1.1v2.339c0 .118.02.255.059.354.039.118.078.216.137.294.06.08.098.138.138.177h-1.867c-.02-.02-.079-.078-.118-.157-.04-.078-.098-.157-.138-.255-.039-.138-.078-.275-.098-.393a2.76 2.76 0 0 1-.04-.452l.413.294a1.285 1.285 0 0 1-.432.59 2.026 2.026 0 0 1-.707.373 5.35 5.35 0 0 1-.826.079Zm.57-1.356c.157 0 .334-.04.491-.118a.97.97 0 0 0 .394-.354 1.37 1.37 0 0 0 .157-.687v-.177l.491.393a3.52 3.52 0 0 1-.688.177c-.255.039-.491.078-.727.117-.216.02-.373.06-.491.099-.118.04-.157.118-.157.236 0 .117.039.176.137.235.098.06.216.079.393.079ZM123.168 42.862v-7.074h1.906v7.074h-1.906Zm3.38-1.945a1.9 1.9 0 0 1-1.081-.334 2.154 2.154 0 0 1-.766-.904 2.696 2.696 0 0 1-.295-1.258v-.078l.668-.02v.079c0 .216.04.373.138.53a.895.895 0 0 0 .353.315.868.868 0 0 0 .433.098.938.938 0 0 0 .648-.256c.197-.157.295-.432.295-.805 0-.374-.098-.63-.295-.786a1.015 1.015 0 0 0-.648-.236c-.158 0-.295.04-.433.098a1.016 1.016 0 0 0-.353.295c-.099.137-.138.314-.138.51l-.668-.039c0-.471.098-.884.295-1.238.196-.353.452-.648.766-.864a1.927 1.927 0 0 1 1.08-.315c.414 0 .787.099 1.14.295.354.197.65.491.885.865.236.393.334.845.334 1.415 0 .59-.118 1.08-.334 1.474-.216.393-.511.687-.865.884a2.583 2.583 0 0 1-1.16.275ZM129.594 40.799v-5.011h1.906v1.847l-.334-.255c.04-.275.118-.511.216-.708.098-.216.236-.393.373-.53.158-.138.335-.256.531-.334.197-.079.413-.118.668-.118.197 0 .354.02.472.039a.58.58 0 0 1 .196.059l-.255 1.65c-.02-.019-.098-.039-.197-.078a.952.952 0 0 0-.353-.059c-.236 0-.452.04-.63.118a.965.965 0 0 0-.412.314 1.85 1.85 0 0 0-.236.433c-.039.157-.078.334-.078.491v2.122h-1.867v.02ZM136.806 40.917a3.28 3.28 0 0 1-1.494-.334 2.401 2.401 0 0 1-1.002-.924c-.236-.393-.354-.845-.354-1.375 0-.511.118-.983.354-1.376.236-.393.57-.707 1.002-.924a3.28 3.28 0 0 1 1.494-.334c.57 0 1.061.118 1.493.334.433.217.767.531 1.003.924.235.393.353.845.353 1.376 0 .51-.118.982-.353 1.375-.236.393-.57.708-1.003.924a3.28 3.28 0 0 1-1.493.334Zm0-1.435c.196 0 .354-.039.491-.137a.965.965 0 0 0 .315-.413c.078-.177.118-.393.118-.629s-.04-.452-.118-.629a.965.965 0 0 0-.315-.412.844.844 0 0 0-.491-.138.804.804 0 0 0-.806.55 1.886 1.886 0 0 0-.118.63c0 .255.04.451.118.628a.965.965 0 0 0 .315.413.804.804 0 0 0 .49.137ZM142.446 40.917c-.413 0-.806-.098-1.16-.295a2.206 2.206 0 0 1-.864-.884c-.216-.393-.334-.884-.334-1.474 0-.55.118-1.022.334-1.415.236-.393.51-.668.884-.865a2.403 2.403 0 0 1 1.14-.294c.393 0 .766.098 1.08.314.315.216.59.491.767.865.197.353.295.786.295 1.238v.118h-.668v-.079c0-.216-.04-.393-.138-.51a.841.841 0 0 0-.354-.296 1.15 1.15 0 0 0-.432-.098c-.236 0-.452.079-.648.236-.197.157-.295.432-.295.786 0 .373.098.648.295.806.196.157.412.255.648.255.157 0 .295-.04.432-.098.138-.079.256-.177.354-.315.098-.137.138-.314.138-.53l.668.04c0 .47-.098.884-.295 1.257-.196.373-.452.688-.766.904-.315.236-.668.334-1.081.334Zm1.493-.118v-7.37h1.907v7.37h-1.907ZM148.499 40.897c-.354 0-.649-.059-.865-.157a1.482 1.482 0 0 1-.53-.452 1.866 1.866 0 0 1-.256-.648 3.166 3.166 0 0 1-.079-.767v-3.085h1.906V38.343c0 .176.02.334.04.49.039.158.098.276.177.355.098.098.235.137.432.137a.717.717 0 0 0 .472-.157.95.95 0 0 0 .275-.393 1.5 1.5 0 0 0 .098-.53l.373.432c0 .334-.039.648-.137.923-.099.275-.236.511-.393.708a2.053 2.053 0 0 1-.63.452c-.294.078-.57.137-.883.137Zm1.65-.098v-5.011h1.906v5.011h-1.906ZM155.573 40.917c-.61 0-1.12-.118-1.552-.354-.433-.236-.767-.55-.983-.943a2.584 2.584 0 0 1-.354-1.356c0-.51.118-.963.354-1.356.236-.393.55-.688.983-.904.432-.216.943-.334 1.552-.334.452 0 .825.059 1.18.197.353.137.608.294.844.49.216.197.393.433.511.669.118.236.177.491.177.727v.04h-1.887v-.06c0-.02 0-.039-.02-.039a.959.959 0 0 0-.117-.255.838.838 0 0 0-.236-.217.964.964 0 0 0-.452-.098.804.804 0 0 0-.491.138.738.738 0 0 0-.315.373 1.403 1.403 0 0 0-.118.61c0 .235.04.432.118.609a.965.965 0 0 0 .315.412.86.86 0 0 0 .491.157c.197 0 .334-.02.452-.078a.597.597 0 0 0 .256-.236.968.968 0 0 0 .117-.334h1.887c0 .236-.059.491-.177.727a2.092 2.092 0 0 1-.51.688c-.217.216-.512.373-.846.51-.354.158-.747.217-1.179.217ZM161.724 40.917c-.216 0-.452-.02-.688-.059a2.401 2.401 0 0 1-.668-.197c-.216-.098-.373-.255-.51-.471-.138-.216-.197-.491-.197-.845v-2.162h-1.12v-1.415h.02c.235 0 .431-.02.589-.039a.592.592 0 0 0 .334-.157c.078-.079.118-.216.137-.393.02-.177.04-.433.04-.747v-.295h1.906v1.65h1.375v1.416h-1.375V38.854c0 .176.02.334.059.471.039.118.157.197.353.197.118 0 .217-.02.315-.04s.177-.039.236-.059V40.8c-.079.04-.177.059-.315.098a3.64 3.64 0 0 1-.491.02ZM168.74 40.917a3.28 3.28 0 0 1-1.494-.334 2.401 2.401 0 0 1-1.002-.924c-.236-.393-.354-.845-.354-1.375 0-.511.118-.983.354-1.376.236-.393.57-.707 1.002-.924a3.28 3.28 0 0 1 1.494-.334c.57 0 1.06.118 1.493.334.432.217.766.531 1.002.924s.354.845.354 1.376c0 .51-.118.982-.354 1.375s-.57.708-1.002.924a3.28 3.28 0 0 1-1.493.334Zm0-1.435c.196 0 .353-.039.49-.137a.965.965 0 0 0 .315-.413c.079-.177.118-.393.118-.629s-.04-.452-.118-.629a.965.965 0 0 0-.314-.412.844.844 0 0 0-.491-.138.804.804 0 0 0-.806.55 1.886 1.886 0 0 0-.118.63c0 .255.04.451.118.628a.965.965 0 0 0 .314.413.804.804 0 0 0 .492.137ZM172.866 40.799v-3.596h-1.002v-1.415h1.002v-.138c0-.393.06-.746.177-1.002.118-.275.275-.491.452-.668.197-.177.393-.295.63-.393.235-.079.451-.157.667-.177.216-.04.433-.04.61-.04.235 0 .412.02.53.04.118.02.177.04.216.059v1.435c-.04-.02-.098-.02-.216-.04-.098-.02-.216-.02-.334-.02-.157 0-.295.02-.413.06-.118.039-.196.098-.275.157a.41.41 0 0 0-.137.255c-.04.099-.04.216-.04.354v.118h1.278v1.415h-1.278v3.596h-1.867ZM181.965 40.917c-.57 0-1.1-.138-1.552-.413a2.88 2.88 0 0 1-1.12-1.198c-.276-.531-.413-1.18-.413-1.966s.157-1.454.452-1.984c.294-.531.687-.944 1.198-1.219a3.395 3.395 0 0 1 1.67-.412c.512 0 .964.078 1.317.235.354.158.649.374.885.61.216.255.393.51.491.786.098.275.157.53.157.746v.04h-1.847v-.04c0-.118-.02-.235-.059-.353a.777.777 0 0 0-.196-.295.856.856 0 0 0-.315-.197 1.285 1.285 0 0 0-.413-.078c-.216 0-.412.059-.628.177-.217.117-.393.334-.531.648s-.216.747-.216 1.317c0 .432.04.786.118 1.06.078.276.177.492.314.65.138.157.275.255.433.314a1.35 1.35 0 0 0 1.06-.02c.158-.078.295-.157.394-.275.098-.118.157-.216.177-.314v-.256h-1.16v-1.316h2.85v3.635h-.885l-.196-.766c-.02.078-.079.157-.157.255a1.4 1.4 0 0 1-.354.295 2.049 2.049 0 0 1-.59.236c-.275.078-.55.098-.884.098ZM186.013 40.799v-5.011h1.906v1.847l-.334-.255c.04-.275.118-.511.216-.708.099-.216.236-.393.374-.53.157-.138.334-.256.53-.334.197-.079.413-.118.669-.118.196 0 .353.02.471.039a.58.58 0 0 1 .197.059l-.256 1.65c-.02-.019-.098-.039-.196-.078a.952.952 0 0 0-.354-.059c-.236 0-.452.04-.629.118a.965.965 0 0 0-.412.314 1.85 1.85 0 0 0-.236.433c-.04.157-.079.334-.079.491v2.122h-1.867v.02ZM191.378 38.814v-1.14h2.948l-.138.236v-.157a.797.797 0 0 0-.098-.334.709.709 0 0 0-.295-.295c-.137-.078-.314-.118-.55-.118-.216 0-.413.04-.57.138a.87.87 0 0 0-.334.413 1.694 1.694 0 0 0-.118.668c0 .275.04.51.118.707.079.197.196.334.354.452.157.098.353.157.609.157.157 0 .275-.02.393-.039.098-.02.196-.059.255-.079.06-.039.118-.078.138-.117.02-.04.059-.08.059-.118h1.886c-.02.216-.098.432-.235.628a2.182 2.182 0 0 1-.57.55c-.236.158-.53.295-.865.374a4.893 4.893 0 0 1-1.14.138c-.59 0-1.1-.118-1.533-.334a2.401 2.401 0 0 1-1.002-.924 2.584 2.584 0 0 1-.353-1.356c0-.53.117-.983.353-1.376.236-.393.57-.707 1.002-.923a3.364 3.364 0 0 1 1.514-.334c.59 0 1.1.118 1.532.334.433.216.767.53 1.003.943.235.413.353.884.353 1.454v.236c0 .059 0 .118-.02.157h-4.696v.06ZM197.175 43c-.177 0-.334 0-.471-.02-.138-.02-.217-.02-.256-.039v-1.376c.04.02.118.04.216.04.099 0 .216.02.354.02a.77.77 0 0 0 .354-.08.777.777 0 0 0 .295-.196.94.94 0 0 0 .196-.334l.04-.118-1.73-5.11h1.985l.884 3.97h-.216l.845-3.97h1.945l-1.65 5.13c-.157.452-.334.845-.55 1.16-.217.314-.511.53-.865.687-.315.157-.786.236-1.376.236ZM209.575 33.842h3.204V40.8h-1.808v-5.935l.039.02-1.081 5.915h-2.417l-1.12-5.935.04-.02V40.8h-1.809v-6.957h3.203l.963 6.23h-.196zM215.47 40.917c-.353 0-.687-.059-.962-.177-.275-.118-.511-.275-.668-.491-.158-.216-.236-.491-.236-.806 0-.373.098-.668.314-.904s.492-.393.826-.51a3.648 3.648 0 0 1 1.022-.217c.51-.04.845-.079 1.021-.118.177-.04.256-.098.256-.177 0-.118-.079-.216-.216-.295-.138-.078-.334-.117-.55-.117-.256 0-.433.039-.57.137-.138.098-.177.236-.177.413h-1.867c0-.413.118-.767.354-1.061.235-.295.55-.511.943-.649a4.054 4.054 0 0 1 1.336-.216c.472 0 .904.079 1.297.216.413.138.727.354.983.629.255.275.373.648.373 1.1v2.339c0 .118.02.255.059.354.04.118.079.216.138.294.059.08.098.138.137.177h-1.867a.626.626 0 0 1-.118-.157 1.059 1.059 0 0 1-.137-.255 3.822 3.822 0 0 1-.098-.393 2.76 2.76 0 0 1-.04-.452l.413.294a1.285 1.285 0 0 1-.432.59 2.026 2.026 0 0 1-.708.373c-.275.079-.53.079-.825.079Zm.57-1.356c.158 0 .335-.04.492-.118a.97.97 0 0 0 .393-.354 1.37 1.37 0 0 0 .157-.687v-.177l.491.393a3.52 3.52 0 0 1-.687.177c-.256.039-.492.078-.727.117-.217.02-.374.06-.492.099a.237.237 0 0 0-.157.236c0 .117.04.176.138.235.098.06.216.079.393.079ZM219.853 40.799v-5.011h1.906v1.847l-.334-.255c.04-.275.118-.511.216-.708.099-.216.236-.393.374-.53.157-.138.334-.256.53-.334.197-.079.413-.118.668-.118.197 0 .354.02.472.039a.58.58 0 0 1 .197.059l-.256 1.65c-.02-.019-.098-.039-.196-.078a.952.952 0 0 0-.354-.059c-.236 0-.452.04-.629.118a.965.965 0 0 0-.413.314 1.85 1.85 0 0 0-.235.433 1.428 1.428 0 0 0-.08.491v2.122h-1.866v.02ZM224.55 40.799v-7.37h1.808v4.03l-.334-.178 1.591-1.473h2.3l-2.535 2.28.373-.65 2.063 3.38h-1.984l-1.337-2.397.511-.02-.825.787.177-.806v2.417z"/><path d="M230.78 38.814v-1.14h2.947l-.138.236v-.157a.797.797 0 0 0-.098-.334.709.709 0 0 0-.295-.295c-.137-.078-.314-.118-.55-.118-.216 0-.413.04-.57.138a.87.87 0 0 0-.334.413 1.694 1.694 0 0 0-.118.668c0 .275.04.51.118.707.079.197.197.334.354.452.157.098.354.157.61.157.156 0 .274-.02.392-.039.098-.02.197-.059.256-.079a.276.276 0 0 0 .137-.117c.02-.04.06-.08.06-.118h1.886c-.02.216-.099.432-.236.628a2.182 2.182 0 0 1-.57.55c-.236.158-.53.295-.865.374a4.893 4.893 0 0 1-1.14.138c-.589 0-1.1-.118-1.532-.334a2.401 2.401 0 0 1-1.003-.924 2.584 2.584 0 0 1-.353-1.356c0-.53.118-.983.353-1.376.236-.393.57-.707 1.003-.923a3.364 3.364 0 0 1 1.513-.334c.59 0 1.1.118 1.533.334.432.216.766.53 1.002.943.236.413.354.884.354 1.454v.236c0 .059 0 .118-.02.157h-4.697v.06ZM238.974 40.917c-.216 0-.452-.02-.688-.059a2.401 2.401 0 0 1-.668-.197c-.216-.098-.373-.255-.511-.471-.138-.216-.196-.491-.196-.845v-2.162h-1.12v-1.415h.019c.236 0 .432-.02.59-.039a.592.592 0 0 0 .334-.157c.078-.079.118-.216.137-.393.02-.177.04-.433.04-.747v-.295h1.906v1.65h1.375v1.416h-1.375V38.854c0 .176.02.334.059.471.039.118.157.197.353.197.118 0 .217-.02.315-.04s.177-.039.236-.059V40.8c-.079.04-.177.059-.315.098-.137.02-.314.02-.491.02ZM243.376 40.799v-6.957h1.906v6.387l-.865-.943h3.341v1.513h-4.382zM250.215 40.917c-.354 0-.688-.059-.963-.177s-.511-.275-.668-.491c-.158-.216-.236-.491-.236-.806 0-.373.098-.668.314-.904s.491-.393.825-.51a3.648 3.648 0 0 1 1.022-.217c.511-.04.845-.079 1.022-.118.177-.04.256-.098.256-.177 0-.118-.079-.216-.216-.295-.138-.078-.335-.117-.55-.117-.256 0-.433.039-.57.137-.138.098-.177.236-.177.413h-1.867c0-.413.118-.767.353-1.061.236-.295.55-.511.944-.649a4.054 4.054 0 0 1 1.336-.216c.472 0 .904.079 1.297.216.413.138.727.354.983.629.255.275.373.648.373 1.1v2.339c0 .118.02.255.059.354.04.118.078.216.137.294.06.08.099.138.138.177h-1.867c-.02-.02-.079-.078-.118-.157a1.059 1.059 0 0 1-.137-.255 3.822 3.822 0 0 1-.099-.393 2.76 2.76 0 0 1-.039-.452l.413.294a1.285 1.285 0 0 1-.433.59 2.026 2.026 0 0 1-.707.373c-.275.079-.53.079-.825.079Zm.55-1.356c.157 0 .334-.04.491-.118a.97.97 0 0 0 .393-.354 1.37 1.37 0 0 0 .157-.687v-.177l.492.393a3.52 3.52 0 0 1-.688.177c-.256.039-.491.078-.727.117-.216.02-.374.06-.492.099a.237.237 0 0 0-.157.236c0 .117.04.176.138.235.098.06.236.079.393.079ZM254.577 40.799v-7.37h1.906v7.37h-1.906Zm3.4.118a1.9 1.9 0 0 1-1.08-.334 2.154 2.154 0 0 1-.767-.904 2.696 2.696 0 0 1-.295-1.258v-.078l.668-.02v.079c0 .216.04.373.138.53a.895.895 0 0 0 .353.315.868.868 0 0 0 .433.098.938.938 0 0 0 .648-.256c.197-.157.295-.432.295-.805 0-.374-.098-.63-.295-.786a1.015 1.015 0 0 0-.648-.236c-.158 0-.295.04-.433.098a1.016 1.016 0 0 0-.353.295c-.099.137-.138.314-.138.51l-.668-.039c0-.471.098-.884.295-1.238.196-.353.452-.648.766-.864a1.927 1.927 0 0 1 1.08-.315c.414 0 .787.099 1.14.295.354.197.65.491.885.865.236.373.334.845.334 1.395 0 .59-.118 1.08-.334 1.474-.216.393-.51.688-.865.884a2.366 2.366 0 0 1-1.16.295ZM263.224 40.917c-.295 0-.59-.04-.884-.098a3.13 3.13 0 0 1-.787-.315 1.646 1.646 0 0 1-.57-.53 1.402 1.402 0 0 1-.216-.767v-.039h1.887v.04c0 .137.059.215.177.274.118.06.275.079.452.079.078 0 .157 0 .236-.02.098-.02.176-.039.235-.098a.206.206 0 0 0 .099-.177c0-.098-.079-.177-.216-.216a7.333 7.333 0 0 0-.747-.157 5.605 5.605 0 0 1-.688-.157 2.517 2.517 0 0 1-.668-.275 1.63 1.63 0 0 1-.511-.452c-.138-.177-.197-.413-.197-.669 0-.373.118-.668.334-.923.217-.256.511-.433.885-.55a3.928 3.928 0 0 1 1.199-.177c.412 0 .805.078 1.159.216.354.137.648.334.884.59.236.255.334.57.334.923v.04h-1.867v-.04a.296.296 0 0 0-.078-.216.408.408 0 0 0-.197-.118.881.881 0 0 0-.668.059c-.059.04-.098.098-.098.157s.04.118.118.157c.078.04.196.079.334.118.137.04.295.06.472.079.176.02.393.059.628.118a2.9 2.9 0 0 1 .688.255c.216.118.413.256.55.452.138.197.217.432.217.727 0 .315-.079.59-.217.806a1.551 1.551 0 0 1-.59.53c-.255.138-.51.236-.805.295a4.76 4.76 0 0 1-.884.079Z"/></g></g></svg>